<svg width="20" height="20" viewBox="0 0 20 20" fill="none" xmlns="http://www.w3.org/2000/svg">
<path d="M9.76224 0.731762C9.83707 0.501434 10.1629 0.501435 10.2378 0.731763L12.4135 7.42807C12.447 7.53107 12.543 7.60081 12.6513 7.60081H19.6922C19.9344 7.60081 20.0351 7.91072 19.8391 8.05307L14.1429 12.1916C14.0553 12.2553 14.0186 12.3681 14.0521 12.4711L16.2279 19.1674C16.3027 19.3978 16.0391 19.5893 15.8432 19.4469L10.1469 15.3084C10.0593 15.2447 9.94068 15.2447 9.85305 15.3084L4.15684 19.4469C3.96091 19.5893 3.69729 19.3978 3.77213 19.1674L5.94789 12.4711C5.98136 12.3681 5.94469 12.2553 5.85707 12.1916L0.160852 8.05307C-0.035076 7.91072 0.0656186 7.60081 0.307799 7.60081H7.34871C7.45702 7.60081 7.55301 7.53107 7.58647 7.42807L9.76224 0.731762Z" fill="#EA4E46"/>
</svg>
